<svg width="21" height="20" viewBox="0 0 21 20" fill="none" xmlns="http://www.w3.org/2000/svg">
    <path fill-rule="evenodd" clip-rule="evenodd" d="M20.1499 10C20.1499 15.5228 15.6727 20 10.1499 20C4.62705 20 0.149902 15.5228 0.149902 10C0.149902 4.47715 4.62705 0 10.1499 0C15.6727 0 20.1499 4.47715 20.1499 10ZM13.1499 7C13.1499 8.65685 11.8068 10 10.1499 10C8.49305 10 7.1499 8.65685 7.1499 7C7.1499 5.34315 8.49305 4 10.1499 4C11.8068 4 13.1499 5.34315 13.1499 7ZM10.1499 18.5C11.9339 18.5 13.5896 17.9504 14.9568 17.0112C15.5607 16.5964 15.8187 15.8062 15.4677 15.1632C14.7399 13.8303 13.2401 13 10.1498 13C7.05959 13 5.55987 13.8302 4.83204 15.1632C4.48095 15.8062 4.739 16.5963 5.34286 17.0111C6.71009 17.9503 8.3658 18.5 10.1499 18.5Z" fill="white"/>
</svg>
