<svg version="1.2" xmlns="http://www.w3.org/2000/svg" viewBox="0 0 548 546" width="548" height="546">
	<title>Group 35898-svg</title>
	<defs>
		<linearGradient id="g1" x2="1" gradientUnits="userSpaceOnUse" gradientTransform="matrix(386.788,386.787,-268.484,268.485,49.35,112.624)">
			<stop offset="0" stop-color="#fffdfd" stop-opacity=".09"/>
			<stop offset=".443" stop-color="#fffdfd" stop-opacity="1"/>
			<stop offset="1" stop-color="#fffdfd" stop-opacity=".28"/>
		</linearGradient>
		<linearGradient id="g2" x2="1" gradientUnits="userSpaceOnUse" gradientTransform="matrix(386.788,386.787,-268.484,268.485,81.35,80.624)">
			<stop offset="0" stop-color="#fffdfd" stop-opacity=".09"/>
			<stop offset=".443" stop-color="#fffdfd" stop-opacity="1"/>
			<stop offset="1" stop-color="#fffdfd" stop-opacity=".28"/>
		</linearGradient>
		<linearGradient id="g3" x2="1" gradientUnits="userSpaceOnUse" gradientTransform="matrix(386.788,386.787,-268.484,268.485,113.35,48.624)">
			<stop offset="0" stop-color="#fffdfd" stop-opacity=".09"/>
			<stop offset=".443" stop-color="#fffdfd" stop-opacity="1"/>
			<stop offset="1" stop-color="#fffdfd" stop-opacity=".28"/>
		</linearGradient>
	</defs>
	<style>
		.s0 { fill: none;stroke: url(#g1) } 
		.s1 { fill: none;stroke: url(#g2) } 
		.s2 { fill: none;stroke: url(#g3) } 
	</style>
	<g id="Layer" style="opacity: .5">
		<path id="Layer" fill-rule="evenodd" class="s0" d="m376.7 172c53.4 53.4 86.6 116.7 97.3 175.9 10.7 59.2-1.3 114.2-38.2 151.2-37 36.9-92 48.8-151.2 38.2-59.2-10.7-122.5-43.9-175.9-97.3-53.3-53.3-86.5-116.6-97.2-175.8-10.7-59.2 1.3-114.3 38.2-151.2 37-37 92-48.9 151.2-38.2 59.2 10.6 122.5 43.9 175.8 97.2z"/>
		<path id="Layer" fill-rule="evenodd" class="s1" d="m408.7 140c53.4 53.4 86.6 116.7 97.3 175.9 10.7 59.2-1.3 114.2-38.2 151.2-37 36.9-92 48.8-151.2 38.2-59.2-10.7-122.5-43.9-175.9-97.3-53.3-53.3-86.5-116.6-97.2-175.8-10.7-59.2 1.3-114.3 38.2-151.2 37-37 92-48.9 151.2-38.2 59.2 10.6 122.5 43.9 175.8 97.2z"/>
		<path id="Layer" fill-rule="evenodd" class="s2" d="m440.7 108c53.4 53.4 86.6 116.7 97.3 175.9 10.7 59.2-1.3 114.2-38.2 151.2-37 36.9-92 48.8-151.2 38.2-59.2-10.7-122.5-43.9-175.9-97.3-53.3-53.3-86.5-116.6-97.2-175.8-10.7-59.2 1.3-114.3 38.2-151.2 37-37 92-48.9 151.2-38.2 59.2 10.6 122.5 43.9 175.8 97.2z"/>
	</g>
</svg>