<svg width="638" height="638" viewBox="0 0 638 638" fill="none" xmlns="http://www.w3.org/2000/svg">
<path d="M409.07 228.956C456.322 276.208 485.779 332.276 495.225 384.711C504.672 437.149 494.102 485.901 461.381 518.622C428.66 551.343 379.908 561.913 327.471 552.466C275.036 543.02 218.967 513.563 171.715 466.311C124.463 419.059 95.0061 362.99 85.5599 310.555C76.1133 258.118 86.6829 209.366 119.404 176.645C152.125 143.923 200.877 133.354 253.315 142.801C305.749 152.247 361.818 181.704 409.07 228.956Z" stroke="white"/>
<path d="M437.421 200.604C484.673 247.856 514.13 303.925 523.577 356.36C533.023 408.797 522.454 457.549 489.732 490.27C457.011 522.992 408.259 533.561 355.822 524.115C303.387 514.669 247.318 485.211 200.066 437.959C152.815 390.708 123.357 334.639 113.911 282.204C104.465 229.767 115.034 181.015 147.755 148.293C180.477 115.572 229.229 105.003 281.666 114.449C334.101 123.895 390.17 153.353 437.421 200.604Z" stroke="white"/>
<path d="M465.773 172.253C513.024 219.505 542.482 275.574 551.928 328.009C561.375 380.446 550.805 429.198 518.084 461.919C485.362 494.641 436.61 505.21 384.173 495.764C331.738 486.317 275.669 456.86 228.418 409.608C181.166 362.357 151.709 306.288 142.262 253.853C132.816 201.416 143.385 152.664 176.107 119.942C208.828 87.2211 257.58 76.6516 310.017 86.0981C362.452 95.5444 418.521 125.002 465.773 172.253Z" stroke="white"/>
</svg>
