<svg width="25" height="25" viewBox="0 0 25 25" fill="none" xmlns="http://www.w3.org/2000/svg">
<path fill-rule="evenodd" clip-rule="evenodd" d="M9.97256 9.07303C9.60943 9.12185 9.49562 9.20067 9.43189 9.26441C9.36815 9.32814 9.28933 9.44195 9.24051 9.80508C9.18845 10.1923 9.18667 10.7178 9.18667 11.5308V13.7634C9.18667 14.5764 9.18845 15.1019 9.24051 15.4891C9.28933 15.8522 9.36815 15.9661 9.43189 16.0298C9.49562 16.0935 9.60943 16.1723 9.97256 16.2212C10.3598 16.2732 10.8853 16.275 11.6983 16.275H13.9309C14.7439 16.275 15.2694 16.2732 15.6566 16.2212C16.0197 16.1723 16.1335 16.0935 16.1973 16.0298C16.261 15.9661 16.3398 15.8522 16.3886 15.4891C16.4407 15.1019 16.4425 14.5764 16.4425 13.7634V11.5308C16.4425 10.7178 16.4407 10.1923 16.3886 9.80508C16.3398 9.44195 16.261 9.32814 16.1973 9.26441C16.1335 9.20067 16.0197 9.12185 15.6566 9.07303C15.2694 9.02097 14.7439 9.01919 13.9309 9.01919H11.6983C10.8853 9.01919 10.3598 9.02097 9.97256 9.07303ZM13.9742 10.9012C14.243 10.525 14.1559 10.0021 13.7796 9.73334C13.4033 9.46459 12.8805 9.55173 12.6117 9.92798L11.017 12.1605C10.8348 12.4157 10.8104 12.7514 10.9539 13.0303C11.0974 13.3091 11.3847 13.4844 11.6983 13.4844H12.304L11.6549 14.3931C11.3862 14.7694 11.4733 15.2922 11.8496 15.561C12.2258 15.8297 12.7487 15.7426 13.0174 15.3663L14.6121 13.1338C14.7944 12.8786 14.8188 12.5429 14.6753 12.2641C14.5318 11.9852 14.2445 11.81 13.9309 11.81H13.3252L13.9742 10.9012Z" fill="white"/>
<path fill-rule="evenodd" clip-rule="evenodd" d="M13.6518 1.4843C13.6518 1.02193 13.277 0.647095 12.8146 0.647095C12.3522 0.647095 11.9774 1.02193 11.9774 1.4843V4.83314C11.3645 4.83442 10.8085 4.83919 10.3027 4.85304L10.3029 4.83314V1.4843C10.3029 1.02193 9.92812 0.647095 9.46574 0.647095C9.00336 0.647095 8.62853 1.02193 8.62853 1.4843V4.83314C8.62853 4.87694 8.6319 4.91995 8.63838 4.96194C7.51515 5.0999 6.73678 5.38564 6.14495 5.97747C5.55312 6.56929 5.26738 7.34767 5.12942 8.4709C5.08743 8.46442 5.04442 8.46105 5.00062 8.46105H1.65178C1.18941 8.46105 0.814575 8.83588 0.814575 9.29826C0.814575 9.76064 1.18941 10.1355 1.65178 10.1355H5.00062L5.02052 10.1352C5.00668 10.641 5.00246 11.197 5.00118 11.8099L1.65178 11.8099C1.18941 11.8099 0.814575 12.1847 0.814575 12.6471C0.814575 13.1095 1.18941 13.4843 1.65178 13.4843H5.00062C5.0019 14.0972 5.00668 14.6532 5.02052 15.159L5.00062 15.1587H1.65178C1.18941 15.1587 0.814575 15.5336 0.814575 15.9959C0.814575 16.4583 1.18941 16.8331 1.65178 16.8331H5.00062C5.04442 16.8331 5.08743 16.8298 5.12942 16.8233C5.26738 17.9465 5.55312 18.7249 6.14495 19.3167C6.73678 19.9085 7.51515 20.1943 8.63838 20.3323C8.6319 20.3742 8.62853 20.4173 8.62853 20.4611V23.8099C8.62853 24.2723 9.00336 24.6471 9.46574 24.6471C9.92812 24.6471 10.3029 24.2723 10.3029 23.8099V20.4611L10.3027 20.4412C10.8085 20.455 11.3645 20.4592 11.9774 20.4605L11.9774 23.8099C11.9774 24.2723 12.3522 24.6471 12.8146 24.6471C13.277 24.6471 13.6518 24.2723 13.6518 23.8099V20.4611C14.2647 20.4598 14.8207 20.455 15.3264 20.4412L15.3262 20.4611V23.8099C15.3262 24.2723 15.701 24.6471 16.1634 24.6471C16.6258 24.6471 17.0006 24.2723 17.0006 23.8099V20.4611C17.0006 20.4173 16.9973 20.3742 16.9908 20.3323C18.114 20.1943 18.8924 19.9085 19.4842 19.3167C20.076 18.7249 20.3618 17.9465 20.4997 16.8233C20.5417 16.8298 20.5847 16.8331 20.6285 16.8331H23.9774C24.4397 16.8331 24.8146 16.4583 24.8146 15.9959C24.8146 15.5336 24.4397 15.1587 23.9774 15.1587H20.6285L20.6086 15.159C20.6225 14.6532 20.6267 14.0972 20.628 13.4843L23.9774 13.4843C24.4397 13.4843 24.8146 13.1095 24.8146 12.6471C24.8146 12.1847 24.4397 11.8099 23.9774 11.8099H20.6285C20.6272 11.197 20.6225 10.641 20.6086 10.1352L20.6285 10.1355H23.9774C24.4397 10.1355 24.8146 9.76064 24.8146 9.29826C24.8146 8.83588 24.4397 8.46105 23.9774 8.46105H20.6285C20.5847 8.46105 20.5417 8.46441 20.4997 8.4709C20.3618 7.34767 20.076 6.56929 19.4842 5.97747C18.8924 5.38564 18.114 5.0999 16.9908 4.96194C16.9973 4.91995 17.0006 4.87694 17.0006 4.83314V1.4843C17.0006 1.02193 16.6258 0.647095 16.1634 0.647095C15.701 0.647095 15.3262 1.02193 15.3262 1.4843V4.83314L15.3264 4.85304C14.8207 4.83919 14.2647 4.83498 13.6518 4.8337V1.4843ZM9.74945 7.41354C10.2615 7.34469 10.901 7.34473 11.6432 7.34477H13.986C14.7282 7.34473 15.3676 7.34469 15.8797 7.41354C16.4285 7.48733 16.9546 7.65372 17.3813 8.08041C17.808 8.50711 17.9744 9.03317 18.0481 9.58197C18.117 10.094 18.1169 10.7335 18.1169 11.4757V13.8185C18.1169 14.5607 18.117 15.2002 18.0481 15.7122C17.9744 16.261 17.808 16.7871 17.3813 17.2138C16.9546 17.6405 16.4285 17.8069 15.8797 17.8807C15.3676 17.9495 14.7282 17.9495 13.986 17.9494H11.6432C10.901 17.9495 10.2615 17.9495 9.74945 17.8807C9.20065 17.8069 8.67459 17.6405 8.24789 17.2138C7.8212 16.7871 7.65481 16.261 7.58102 15.7122C7.51218 15.2001 7.51221 14.5607 7.51225 13.8185V11.4757C7.51221 10.7335 7.51218 10.0941 7.58102 9.58197C7.65481 9.03317 7.8212 8.50711 8.24789 8.08041C8.67459 7.65372 9.20065 7.48733 9.74945 7.41354Z" fill="white"/>
</svg>
