<svg xmlns="http://www.w3.org/2000/svg" width="58" height="59" fill="none"><path fill="#fff" d="M44.817 19.767h-5.108c-.59 0-1.156-.253-1.554-.698l-2.072-2.338a1.628 1.628 0 0 0-1.217-.554c-.47 0-.903.205-1.217.554l-1.783 2.012a3.09 3.09 0 0 1-2.288 1.036H1.617a28.45 28.45 0 0 0-1.518 7.144h26.395c.47 0 .903-.193 1.228-.53l2.458-2.566a1.605 1.605 0 0 1 1.169-.506h.096c.47 0 .903.205 1.217.554l2.072 2.337c.397.446.963.699 1.554.699h21.54a28.772 28.772 0 0 0-1.518-7.156l-11.493.012ZM16.073 41.958c.47 0 .904-.193 1.229-.53l2.457-2.566a1.632 1.632 0 0 1 1.18-.506h.097c.47 0 .916.204 1.217.542l2.072 2.337c.398.446.964.699 1.554.699h29.202a28.912 28.912 0 0 0 2.373-7.229H29.421c-.59 0-1.156-.253-1.554-.698l-2.072-2.313a1.64 1.64 0 0 0-2.433 0l-1.784 2.011a3.053 3.053 0 0 1-2.3 1.037H.495A28.91 28.91 0 0 0 2.87 41.97l13.204-.012ZM36.782 11.949c.47 0 .903-.193 1.229-.53l2.457-2.566a1.612 1.612 0 0 1 1.18-.506h.097c.47 0 .904.204 1.217.554l2.072 2.349c.397.446.964.699 1.554.699h5.554C46.852 4.913 38.444.372 28.975.372c-9.469 0-17.89 4.541-23.178 11.577h30.985ZM25.638 49.126h-7.59c-.59 0-1.156-.253-1.553-.7l-2.073-2.336a1.616 1.616 0 0 0-1.216-.542c-.47 0-.916.204-1.217.542l-1.783 2.012a3.053 3.053 0 0 1-2.301 1.036h-.12c5.288 5.662 12.817 9.216 21.19 9.216 8.373 0 15.89-3.554 21.19-9.216l-24.527-.012Z"/></svg>