<svg width="59" height="59" viewBox="0 0 59 59" fill="none" xmlns="http://www.w3.org/2000/svg">
<path d="M29.5817 58.908C45.5897 58.908 58.5667 45.931 58.5667 29.923C58.5667 13.915 45.5897 0.937988 29.5817 0.937988C13.5737 0.937988 0.59668 13.915 0.59668 29.923C0.59668 45.931 13.5737 58.908 29.5817 58.908Z" fill="white"/>
<path d="M21.1296 37.6215C19.4021 37.6215 17.9876 37.2157 16.8862 36.4041C15.7964 35.581 15.2515 34.3984 15.2515 32.8796C15.2515 32.5549 15.2862 32.1723 15.3558 31.7086C15.5413 30.6651 15.808 29.4129 16.1558 27.9405C17.1413 23.9522 19.692 21.958 23.7962 21.958C24.9093 21.958 25.9179 22.1435 26.7991 22.5261C27.6802 22.8855 28.3759 23.442 28.886 24.1841C29.3961 24.9145 29.6512 25.784 29.6512 26.7927C29.6512 27.0941 29.6164 27.4768 29.5469 27.9405C29.3266 29.2274 29.0715 30.4912 28.7585 31.7086C28.2483 33.6911 27.3788 35.1868 26.1266 36.1723C24.8861 37.1461 23.2165 37.6215 21.1296 37.6215ZM21.4427 34.4911C22.2542 34.4911 22.9383 34.2476 23.5064 33.7723C24.0861 33.2969 24.5035 32.5665 24.747 31.5694C25.0832 30.2013 25.3382 29.0188 25.5122 27.9985C25.5701 27.697 25.6049 27.384 25.6049 27.0594C25.6049 25.7377 24.9209 25.0768 23.5412 25.0768C22.7296 25.0768 22.034 25.3203 21.4543 25.7956C20.8861 26.271 20.4804 27.0014 20.2369 27.9985C19.9702 28.9724 19.7152 30.155 19.4485 31.5694C19.3905 31.8593 19.3557 32.1607 19.3557 32.4854C19.3441 33.8303 20.0514 34.4911 21.4427 34.4911Z" fill="#080B27"/>
<path d="M30.66 37.4127C30.4976 37.4127 30.3817 37.3664 30.289 37.262C30.2194 37.1461 30.1962 37.0185 30.2194 36.8678L33.2222 22.7231C33.2454 22.5608 33.3266 22.4333 33.4657 22.3289C33.5932 22.2246 33.7324 22.1782 33.8831 22.1782H39.6685C41.2801 22.1782 42.567 22.5144 43.5409 23.1753C44.5264 23.8478 45.0249 24.8101 45.0249 26.0738C45.0249 26.4332 44.9786 26.8158 44.8974 27.21C44.538 28.8796 43.8076 30.1085 42.6945 30.9085C41.6047 31.7085 40.1091 32.1027 38.2077 32.1027H35.2744L34.2773 36.8678C34.2425 37.0301 34.1729 37.1577 34.0338 37.262C33.9063 37.3664 33.7672 37.4127 33.6164 37.4127H30.66ZM38.3584 29.0998C38.9729 29.0998 39.4946 28.9375 39.9468 28.6013C40.4105 28.2651 40.712 27.7897 40.8627 27.1636C40.9091 26.9202 40.9322 26.6999 40.9322 26.5144C40.9322 26.097 40.8047 25.7724 40.5612 25.5521C40.3178 25.3202 39.8888 25.2043 39.2975 25.2043H36.6888L35.8657 29.0998H38.3584Z" fill="#080B27"/>
</svg>
