<svg width="56" height="56" viewBox="0 0 56 56" fill="none" xmlns="http://www.w3.org/2000/svg">
<path d="M42.4252 23.7891C43.4147 21.7662 44.1183 19.2595 44.1183 16.1152C44.1183 11.8056 42.4032 7.91372 39.2809 5.12125C36.2026 2.39474 32.0249 0.943528 27.2095 0.943528L10.6525 0.855576C7.46427 0.855576 4.86969 3.45016 4.86969 6.66041V55.8256H33.8499C44.668 55.8256 51.0005 46.7885 51.0005 38.631C51.0005 32.4303 47.5704 26.7574 42.4472 23.7671L42.4252 23.7891ZM27.2095 5.18721C34.9933 5.18721 39.8746 9.84867 39.8746 16.1152C39.8746 24.5147 33.564 28.3626 27.1655 28.3626C21.1628 28.3626 16.2155 23.4153 16.2155 15.7195V11.4758C16.2155 8.6833 14.5444 6.19866 11.9718 5.36312V5.18721H27.2095Z" fill="white"/>
</svg>
