<svg width="56" height="56" viewBox="0 0 56 56" fill="none" xmlns="http://www.w3.org/2000/svg">
<path d="M23.5136 12C22.2579 12.0063 21.0157 12.2612 19.858 12.7502C18.7002 13.2392 17.6497 13.9527 16.7662 14.85C15.8828 15.7473 15.1838 16.8107 14.7092 17.9796C14.2346 19.1486 13.9936 20.4 14.0001 21.6626V24.8542H21.7299V20.2302C21.7298 20.013 21.7723 19.798 21.8549 19.5973C21.9375 19.3967 22.0586 19.2144 22.2113 19.0608C22.364 18.9072 22.5454 18.7855 22.7449 18.7024C22.9444 18.6193 23.1583 18.5765 23.3743 18.5766H23.653C23.869 18.5765 24.0829 18.6193 24.2824 18.7024C24.482 18.7855 24.6633 18.9072 24.8161 19.0608C24.9688 19.2144 25.0899 19.3967 25.1726 19.5973C25.2552 19.798 25.2977 20.013 25.2977 20.2302V32.626C26.3128 32.626 27.318 32.425 28.2558 32.0345C29.1936 31.6439 30.0458 31.0714 30.7636 30.3498C31.4814 29.6281 32.0507 28.7713 32.4392 27.8284C32.8276 26.8855 33.0275 25.8748 33.0275 24.8542V21.6626C33.033 19.1045 32.0311 16.6482 30.2408 14.8306C29.3624 13.9336 28.3152 13.2214 27.1602 12.7355C26.0053 12.2495 24.7657 11.9995 23.5136 12Z" fill="#F2F2F2"/>
<path d="M23.6533 38.9007H23.3747C23.1587 38.9007 22.9449 38.8579 22.7453 38.7749C22.5458 38.6918 22.3645 38.57 22.2118 38.4164C22.0591 38.2629 21.938 38.0807 21.8554 37.8801C21.7728 37.6795 21.7302 37.4644 21.7303 37.2473V24.8516C20.7152 24.8515 19.71 25.0524 18.7721 25.4429C17.8342 25.8335 16.9821 26.4059 16.2643 27.1276C15.5465 27.8493 14.9771 28.7061 14.5887 29.6491C14.2003 30.592 14.0004 31.6027 14.0005 32.6233V35.7705C13.9876 37.0349 14.2242 38.2893 14.6965 39.4612C15.1689 40.6331 15.8676 41.6992 16.7523 42.5979C17.637 43.4965 18.6901 44.2099 19.8508 44.6968C21.0114 45.1837 22.2566 45.4344 23.5142 45.4344C24.7718 45.4344 26.0169 45.1837 27.1776 44.6968C28.3382 44.2099 29.3914 43.4965 30.2761 42.5979C31.1608 41.6992 31.8595 40.6331 32.3318 39.4612C32.8042 38.2893 33.0407 37.0349 33.0278 35.7705V32.6233H25.2981V37.2473C25.2981 37.4645 25.2555 37.6795 25.1729 37.8801C25.0902 38.0807 24.969 38.263 24.8163 38.4165C24.6636 38.5701 24.4823 38.6918 24.2827 38.7749C24.0832 38.8579 23.8693 38.9007 23.6533 38.9007Z" fill="#F2F2F2"/>
</svg>
