<svg width="24" height="25" viewBox="0 0 24 25" fill="none" xmlns="http://www.w3.org/2000/svg">
<path d="M12 3.22091V12.7209M12 12.7209L20.5 7.99862M12 12.7209L3.5 7.99862M12 12.7209V22.2209M20.5 17.4431L12.777 13.1526C12.4934 12.995 12.3516 12.9163 12.2015 12.8854C12.0685 12.858 11.9315 12.858 11.7986 12.8854C11.6484 12.9163 11.5066 12.995 11.223 13.1526L3.5 17.4431M21 16.7795V8.66235C21 8.31971 21 8.14839 20.9495 7.99559C20.9049 7.86042 20.8318 7.73633 20.7354 7.63164C20.6263 7.51331 20.4766 7.43011 20.177 7.2637L12.777 3.15259C12.4934 2.99503 12.3516 2.91625 12.2015 2.88537C12.0685 2.85803 11.9315 2.85803 11.7986 2.88537C11.6484 2.91625 11.5066 2.99503 11.223 3.15259L3.82297 7.26371C3.52345 7.43011 3.37369 7.51331 3.26463 7.63165C3.16816 7.73634 3.09515 7.86042 3.05048 7.99559C3 8.14839 3 8.31971 3 8.66236V16.7795C3 17.1221 3 17.2934 3.05048 17.4462C3.09515 17.5814 3.16816 17.7055 3.26463 17.8102C3.37369 17.9285 3.52345 18.0117 3.82297 18.1781L11.223 22.2892C11.5066 22.4468 11.6484 22.5256 11.7986 22.5564C11.9315 22.5838 12.0685 22.5838 12.2015 22.5564C12.3516 22.5256 12.4934 22.4468 12.777 22.2892L20.177 18.1781C20.4766 18.0117 20.6263 17.9285 20.7354 17.8102C20.8318 17.7055 20.9049 17.5814 20.9495 17.4462C21 17.2934 21 17.1221 21 16.7795Z" stroke="#3B44F9" stroke-width="2" stroke-linecap="round" stroke-linejoin="round"/>
</svg>
