<svg width="24" height="25" viewBox="0 0 24 25" fill="none" xmlns="http://www.w3.org/2000/svg">
<path d="M12 2.08813L10.6985 7.29412C10.4445 8.30998 10.3176 8.81791 10.0531 9.23122C9.81915 9.59681 9.50868 9.90729 9.14309 10.1412C8.72978 10.4057 8.22185 10.5327 7.20599 10.7866L2 12.0881L7.20599 13.3896C8.22185 13.6436 8.72978 13.7706 9.14309 14.0351C9.50868 14.269 9.81915 14.5795 10.0531 14.945C10.3176 15.3584 10.4445 15.8663 10.6985 16.8821L12 22.0881L13.3015 16.8821C13.5555 15.8663 13.6824 15.3584 13.9469 14.945C14.1808 14.5795 14.4913 14.269 14.8569 14.0351C15.2702 13.7706 15.7782 13.6436 16.794 13.3896L22 12.0881L16.794 10.7866C15.7782 10.5327 15.2702 10.4057 14.8569 10.1412C14.4913 9.90729 14.1808 9.59681 13.9469 9.23122C13.6824 8.81791 13.5555 8.30998 13.3015 7.29413L12 2.08813Z" stroke="#3B44F9" stroke-width="2" stroke-linecap="round" stroke-linejoin="round"/>
</svg>
