<svg xmlns="http://www.w3.org/2000/svg" width="20" height="20" fill="none"><path fill="#fff" fill-rule="evenodd" d="M10 20c-4.714 0-7.071 0-8.536-1.465C0 17.072 0 14.714 0 10s0-7.071 1.464-8.536C2.93 0 5.286 0 10 0c4.714 0 7.071 0 8.535 1.464C20 2.93 20 5.286 20 10c0 4.714 0 7.071-1.465 8.535C17.072 20 14.714 20 10 20ZM6.75 4.5a.75.75 0 1 0-1.5 0v1.25H4a.75.75 0 0 0 0 1.5h1.25V8.5a.75.75 0 0 0 1.5 0V7.25H8a.75.75 0 1 0 0-1.5H6.75V4.5ZM12 5.75a.75.75 0 0 0 0 1.5h4a.75.75 0 0 0 0-1.5h-4Zm0 6a.75.75 0 0 0 0 1.5h4a.75.75 0 0 0 0-1.5h-4Zm-6.97.22a.75.75 0 0 0-1.06 1.06l.97.97-.97.97a.75.75 0 1 0 1.06 1.06l.97-.97.97.97a.75.75 0 0 0 1.06-1.06L7.06 14l.97-.97a.75.75 0 1 0-1.06-1.06l-.97.97-.97-.97ZM12 14.75a.75.75 0 0 0 0 1.5h4a.75.75 0 0 0 0-1.5h-4Z" clip-rule="evenodd"/></svg>