<svg width="52" height="59" viewBox="0 0 52 59" fill="none" xmlns="http://www.w3.org/2000/svg">
<path d="M26.0912 38.1244L34.093 50.6728L41.4766 46.399L30.9832 29.8497L26.0912 38.1244ZM48.2054 41.3615V37.9243L36.73 20.0474L32.4745 27.2673L43.5498 45.1806L47.5507 42.8527C47.9508 42.5254 48.1872 42.0707 48.2054 41.5615V41.3615ZM0.121459 44.5986L5.77732 47.8539L24.5999 17.6651L21.3992 17.5741C18.6712 17.5377 15.7433 18.247 14.3975 20.4475L3.70411 37.015L0.103271 42.5436C0.121458 42.5436 0.121459 44.5986 0.121459 44.5986ZM35.457 17.6651L27.0368 17.7014L7.99602 49.1269L14.6521 52.9642L16.4707 49.8908L35.457 17.6651Z" fill="white"/>
<path d="M51.7518 17.6287C51.6791 15.8647 50.7334 14.2643 49.2421 13.3186L28.31 1.27945C26.8369 0.533823 24.9819 0.533823 23.5089 1.27945C23.327 1.37038 3.15865 13.064 3.15865 13.064C2.88586 13.1913 2.61307 13.355 2.35847 13.5369C1.03088 14.5007 0.212512 15.9738 0.121582 17.6105V42.5436L3.72242 37.0151L3.68605 17.7742C3.68605 17.7015 3.70424 17.6287 3.70424 17.5742C3.77698 17.1195 4.03158 16.7194 4.41349 16.4466C4.50442 16.3739 25.0365 4.49838 25.091 4.46201C25.5821 4.22559 26.1822 4.22559 26.6732 4.46201L47.3326 16.3375C47.8236 16.6467 48.1328 17.1741 48.151 17.756V41.5798C48.1328 42.089 47.9327 42.5618 47.5326 42.871L43.5317 45.1988L41.4767 46.3991L34.0931 50.6728L26.6005 55.0193C26.2004 55.1648 25.7276 55.1648 25.3275 55.0011L16.4708 49.909L14.6522 52.9824L22.6177 57.5653C22.8723 57.7108 23.1088 57.8563 23.3088 57.9472C23.5998 58.1109 23.818 58.22 23.8908 58.2564C24.4545 58.5292 25.2729 58.6928 26.0003 58.6928C26.6732 58.6928 27.3279 58.5655 27.9463 58.3291L49.6968 45.7262C50.9516 44.7623 51.6791 43.3074 51.7518 41.7253V17.6287Z" fill="white"/>
</svg>
