<svg width="21" height="17" viewBox="0 0 21 17" fill="none" xmlns="http://www.w3.org/2000/svg">
<path d="M8.47998 8.90454C8.47998 7.6619 9.48734 6.65454 10.73 6.65454C11.9726 6.65454 12.98 7.6619 12.98 8.90454C12.98 10.1472 11.9726 11.1545 10.73 11.1545C9.48734 11.1545 8.47998 10.1472 8.47998 8.90454Z" fill="url(#paint0_linear_679_1664)"/>
<path fill-rule="evenodd" clip-rule="evenodd" d="M0.72998 8.90454C0.72998 10.5439 1.15494 11.096 2.00487 12.2002C3.70195 14.405 6.54809 16.9045 10.73 16.9045C14.9119 16.9045 17.758 14.405 19.4551 12.2002C20.305 11.096 20.73 10.5439 20.73 8.90454C20.73 7.26517 20.305 6.71307 19.4551 5.60887C17.758 3.4041 14.9119 0.904541 10.73 0.904541C6.54809 0.904541 3.70194 3.4041 2.00487 5.60887C1.15494 6.71307 0.72998 7.26517 0.72998 8.90454ZM10.73 5.15454C8.65891 5.15454 6.97998 6.83347 6.97998 8.90454C6.97998 10.9756 8.65891 12.6545 10.73 12.6545C12.801 12.6545 14.48 10.9756 14.48 8.90454C14.48 6.83347 12.801 5.15454 10.73 5.15454Z" fill="url(#paint1_linear_679_1664)"/>
<defs>
<linearGradient id="paint0_linear_679_1664" x1="-1.14058" y1="-17.4443" x2="28.1441" y2="-15.9375" gradientUnits="userSpaceOnUse">
<stop stop-color="#F2A93C"/>
<stop offset="1" stop-color="#FF6B00"/>
</linearGradient>
<linearGradient id="paint1_linear_679_1664" x1="-1.14058" y1="-17.4443" x2="28.1441" y2="-15.9375" gradientUnits="userSpaceOnUse">
<stop stop-color="#F2A93C"/>
<stop offset="1" stop-color="#FF6B00"/>
</linearGradient>
</defs>
</svg>
