<svg width="21" height="21" viewBox="0 0 21 21" fill="none" xmlns="http://www.w3.org/2000/svg">
    <path d="M17.5497 13.7217L19.2662 8.57232C20.7656 4.07393 21.5154 1.82474 20.3281 0.637467C19.1408 -0.549801 16.8916 0.199929 12.3933 1.69939L7.24393 3.41584C3.6133 4.62605 1.79798 5.23115 1.28212 6.1185C0.791376 6.96264 0.791376 8.0052 1.28212 8.84935C1.79798 9.73669 3.6133 10.3418 7.24393 11.552C7.69387 11.702 8.20007 11.5949 8.537 11.2611L14.0426 5.80647C14.3524 5.4996 14.8522 5.50192 15.1591 5.81166C15.466 6.1214 15.4637 6.62127 15.1539 6.92814L9.73718 12.2947C9.36582 12.6626 9.24826 13.2257 9.41357 13.7217C10.6238 17.3523 11.2289 19.1676 12.1162 19.6835C12.9604 20.1742 14.0029 20.1742 14.8471 19.6835C15.7344 19.1676 16.3395 17.3523 17.5497 13.7217Z" fill="url(#paint0_linear_1356_82)"/>
    <defs>
        <linearGradient id="paint0_linear_1356_82" x1="7.07906" y1="-3.51182" x2="24.7685" y2="9.67747" gradientUnits="userSpaceOnUse">
            <stop stop-color="#3B44F9"/>
            <stop offset="1" stop-color="#CC00FF"/>
        </linearGradient>
    </defs>
</svg>
